# xmcd
#
# Track frame offsets:
#	182
#	22827
#	43142
#	65165
#	86105
#	107047
#	128587
#	148177
#	169135
#	190575
#
# Disc length: 2798 seconds
#
# Revision: 1
# Processed by: cddbd v1.5.2PL0 Copyright (c) Steve Scherf et al.
# Submitted via: EasyCDDAExtractor 15.3.0.1
#
DISCID=890aec0a
DTITLE=Mayra and Celines - 18.75
DYEAR=1992
DGENRE=Latin
TTITLE0=Señor
TTITLE1=Vuelto Loca Y Sin Idea
TTITLE2=Te
TTITLE3=Hazlo De A Poco
TTITLE4=En Vivo Y En Directo
TTITLE5=Del Mismo Nido
TTITLE6=18.75
TTITLE7=Amorosamente
TTITLE8=Matame
TTITLE9=A Fuego Lento
EXTD=YEAR: 1992 ID3G:  86\n
EXTT0=
EXTT1=
EXTT2=
EXTT3=
EXTT4=
EXTT5=
EXTT6=
EXTT7=
EXTT8=
EXTT9=
PLAYORDER=
